<svg xmlns="http://www.w3.org/2000/svg" width="24" height="24" viewBox="0 0 24 24" fill="none" stroke="currentColor" stroke-width="2" stroke-linecap="round" stroke-linejoin="round">
    <path d="M2 21c.6.5 1.2.5 3.5 0s6.9-3.9 8.5-6c1.6-2.1 1.6-4.7 1-5-1.2-.6-4.4 0-6.8 1.4C6.8 12.7 2 16.5 2 21"/>
    <path d="M15.5 7.5c1.7-1.7 2.4-4.2 1.6-5.5-.4-.7-1.2-.9-2.4-.4"/>
    <path d="M17 12c-1.2 0-2.4.3-3.3.9-.4.3-.7.6-1 1"/>
    <path d="M3 3c0 1.1.3 2.2.9 3.1"/>
    <path d="M8.5 8.5c-.8.8-1.2 2-1.2 3.2"/>
</svg>